<svg id="Слой_1" data-name="Слой 1" xmlns="http://www.w3.org/2000/svg" viewBox="0 0 383.26 100.36"><defs><style>.cls-1{fill:#e83665;}.cls-2{fill:#fdcc68;}.cls-3{fill:#1d1d1b;}</style></defs><g id="Layer1_0_FILL" data-name="Layer1 0 FILL"><path class="cls-1" d="M1863.94,1040.68l68,100,62-100h-130m67.3,79.15-45.8-67.3h87.5Z" transform="translate(-1863.94 -1040.68)"/><path class="cls-2" d="M1885.44,1052.53l45.8,67.3,41.7-67.3Z" transform="translate(-1863.94 -1040.68)"/></g><g id="Layer0_0_FILL" data-name="Layer0 0 FILL"><path class="cls-1" d="M1939.49,1048.68h-18.25l-22,40,6.8,10,10.25-16.35h30.9l8.9,15.5,6.85-11.05-23.45-38.15m.35,23.1h-17.65l7.85-14.1Z" transform="translate(-1863.94 -1040.68)"/></g><path class="cls-3" d="M1995.27,1098.73l12-56.7h7.63l12.11,56.7h-7.49l-2.59-14.28h-11.55l-2.73,14.28Zm11.2-20h9.45l-4.76-25.55Z" transform="translate(-1863.94 -1040.68)"/><path class="cls-3" d="M2047.42,1099.36q-6.17,0-9.45-2.45a12.23,12.23,0,0,1-4.48-6.9,40.57,40.57,0,0,1-1.19-10.39V1042h7.56V1080a41.25,41.25,0,0,0,.49,6.65,8.87,8.87,0,0,0,2.14,4.76,7.88,7.88,0,0,0,9.9,0,9.07,9.07,0,0,0,2.1-4.76,41.25,41.25,0,0,0,.49-6.65V1042h7.49v37.59a40.57,40.57,0,0,1-1.19,10.39,12.28,12.28,0,0,1-4.44,6.9Q2053.59,1099.36,2047.42,1099.36Z" transform="translate(-1863.94 -1040.68)"/><path class="cls-3" d="M2077,1098.73v-50.82h-9.59V1042h26.81v5.88h-9.31v50.82Z" transform="translate(-1863.94 -1040.68)"/><path class="cls-3" d="M2114.2,1099.36c-3.83,0-6.88-.75-9.17-2.24a12.27,12.27,0,0,1-4.9-6.41,29.3,29.3,0,0,1-1.47-9.76v-21.49a27.39,27.39,0,0,1,1.51-9.63,12,12,0,0,1,4.89-6.16c2.27-1.42,5.31-2.13,9.14-2.13s6.86.72,9.1,2.17a12.26,12.26,0,0,1,4.87,6.16,27.28,27.28,0,0,1,1.5,9.59V1081a28.33,28.33,0,0,1-1.5,9.66,12.78,12.78,0,0,1-4.87,6.4Q2119.94,1099.36,2114.2,1099.36Zm0-6.23a7.42,7.42,0,0,0,4.76-1.3,6.37,6.37,0,0,0,2.17-3.64,24,24,0,0,0,.56-5.49v-24.85a23.19,23.19,0,0,0-.56-5.43,6.07,6.07,0,0,0-2.17-3.5,7.82,7.82,0,0,0-4.76-1.22,8,8,0,0,0-4.79,1.22,6,6,0,0,0-2.21,3.5,23.19,23.19,0,0,0-.56,5.43v24.85a24,24,0,0,0,.56,5.49,6.27,6.27,0,0,0,2.21,3.64A7.55,7.55,0,0,0,2114.2,1093.13Z" transform="translate(-1863.94 -1040.68)"/><path class="cls-3" d="M2137.3,1098.73l1-56.7h7.77l10,46,10.08-46h7.7l1.05,56.7h-6.37l-.63-41.16-9.59,41.16h-4.48l-9.52-41.16-.63,41.16Z" transform="translate(-1863.94 -1040.68)"/><path class="cls-3" d="M2180.56,1098.73l12-56.7h7.63l12.11,56.7h-7.49l-2.59-14.28h-11.55l-2.73,14.28Zm11.2-20h9.45l-4.76-25.55Z" transform="translate(-1863.94 -1040.68)"/><path class="cls-3" d="M2218.08,1098.73V1042h5.39l16.1,37.66V1042h6.58v56.7h-5L2224.8,1060v38.71Z" transform="translate(-1863.94 -1040.68)"/><path class="cls-3" d="M2144.69,1140.68v-5.36h4.82v5.36Z" transform="translate(-1863.94 -1040.68)"/><path class="cls-3" d="M2160.53,1141a7.77,7.77,0,0,1-4.54-1.17,6.25,6.25,0,0,1-2.36-3.33,16.48,16.48,0,0,1-.7-5.09v-7.56a16.41,16.41,0,0,1,.7-5.08,6.25,6.25,0,0,1,2.36-3.33,9.37,9.37,0,0,1,9.07,0,6.39,6.39,0,0,1,2.34,3.33,16.73,16.73,0,0,1,.69,5.08v7.56a16.8,16.8,0,0,1-.69,5.09,6.39,6.39,0,0,1-2.34,3.33A7.71,7.71,0,0,1,2160.53,1141Zm0-3.56a2.21,2.21,0,0,0,2-.81,4.33,4.33,0,0,0,.68-2.13c.07-.89.11-1.81.11-2.77v-8.15c0-1,0-1.92-.11-2.79a4.4,4.4,0,0,0-.68-2.13,2.18,2.18,0,0,0-2-.84,2.24,2.24,0,0,0-2,.84,4.2,4.2,0,0,0-.69,2.13q-.12,1.31-.12,2.79v8.15c0,1,0,1.88.12,2.77a4.14,4.14,0,0,0,.69,2.13A2.28,2.28,0,0,0,2160.53,1137.48Z" transform="translate(-1863.94 -1040.68)"/><path class="cls-3" d="M2172.5,1140.68v-26h4.82v2.56a14,14,0,0,1,2.88-2.07,7.12,7.12,0,0,1,3.46-.85,3.31,3.31,0,0,1,2.41.81,4.31,4.31,0,0,1,1.17,2,9,9,0,0,1,.34,2.48v21.06h-4.82V1121a4.7,4.7,0,0,0-.4-2.16,1.71,1.71,0,0,0-1.67-.76,3.57,3.57,0,0,0-1.68.47,9.71,9.71,0,0,0-1.69,1.15v21Z" transform="translate(-1863.94 -1040.68)"/><path class="cls-3" d="M2192.71,1140.68v-36.45h4.81v36.45Z" transform="translate(-1863.94 -1040.68)"/><path class="cls-3" d="M2202.88,1110.8v-5h4.81v5Zm0,29.88v-26h4.81v26Z" transform="translate(-1863.94 -1040.68)"/><path class="cls-3" d="M2212.87,1140.68v-26h4.81v2.56a14,14,0,0,1,2.88-2.07,7.16,7.16,0,0,1,3.47-.85,3.29,3.29,0,0,1,2.4.81,4.31,4.31,0,0,1,1.17,2,9,9,0,0,1,.34,2.48v21.06h-4.81V1121a4.68,4.68,0,0,0-.41-2.16,1.7,1.7,0,0,0-1.66-.76,3.61,3.61,0,0,0-1.69.47,9.71,9.71,0,0,0-1.69,1.15v21Z" transform="translate(-1863.94 -1040.68)"/><path class="cls-3" d="M2239.82,1141a8,8,0,0,1-4.72-1.2,6.16,6.16,0,0,1-2.32-3.51,21.06,21.06,0,0,1-.65-5.69v-5.94a20.79,20.79,0,0,1,.67-5.76,6.16,6.16,0,0,1,2.36-3.46,8.09,8.09,0,0,1,4.66-1.17,7.27,7.27,0,0,1,4.84,1.35,6.69,6.69,0,0,1,2.05,3.89,32.5,32.5,0,0,1,.49,6.1v2.11h-10.26V1133a9.53,9.53,0,0,0,.29,2.57,2.64,2.64,0,0,0,.95,1.46,2.77,2.77,0,0,0,1.69.47,2.32,2.32,0,0,0,1.64-.52,2.69,2.69,0,0,0,.76-1.48,10.83,10.83,0,0,0,.21-2.27v-1.58h4.68v1a10.18,10.18,0,0,1-1.67,6.17Q2243.83,1141,2239.82,1141Zm-2.88-15.89h5.54v-2.34a17.3,17.3,0,0,0-.18-2.72,3,3,0,0,0-.75-1.67,2.42,2.42,0,0,0-1.77-.56,2.6,2.6,0,0,0-1.78.54,3.07,3.07,0,0,0-.83,1.82,21.59,21.59,0,0,0-.23,3.54Z" transform="translate(-1863.94 -1040.68)"/></svg>