<svg id="Слой_1" data-name="Слой 1" xmlns="http://www.w3.org/2000/svg" viewBox="0 0 474.32 100.3"><defs><style>.cls-1{fill:#e83665;}.cls-2{fill:#fdcc68;}.cls-3{fill:#1d1d1b;}</style></defs><g id="Layer1_0_FILL" data-name="Layer1 0 FILL"><path class="cls-1" d="M1818.41,1040.71l68,100,62-100h-130m67.3,79.15-45.8-67.3h87.5Z" transform="translate(-1818.41 -1040.71)"/><path class="cls-2" d="M1839.91,1052.56l45.8,67.3,41.7-67.3Z" transform="translate(-1818.41 -1040.71)"/></g><g id="Layer0_0_FILL" data-name="Layer0 0 FILL"><path class="cls-1" d="M1894,1048.71h-18.25l-22,40,6.8,10,10.25-16.35h30.9l8.9,15.5,6.85-11.05L1894,1048.71m.35,23.1h-17.65l7.85-14.1Z" transform="translate(-1818.41 -1040.71)"/></g><path class="cls-3" d="M1949.64,1091.71l19.24-50.11H1976l20.51,50.11H1989l-5.85-15.18h-21l-5.5,15.18Zm14.46-20.58h17l-5.23-13.88q-2.38-6.32-3.55-10.39a63.87,63.87,0,0,1-2.7,9.57Z" transform="translate(-1818.41 -1040.71)"/><path class="cls-3" d="M2034.71,1041.6h6.63v29q0,7.56-1.71,12a14.63,14.63,0,0,1-6.17,7.23q-4.45,2.78-11.7,2.78-7,0-11.52-2.42a13.8,13.8,0,0,1-6.39-7q-1.92-4.59-1.92-12.56v-29h6.63v28.92q0,6.52,1.22,9.62a9.2,9.2,0,0,0,4.17,4.77,14.53,14.53,0,0,0,7.23,1.67q7.3,0,10.42-3.31t3.11-12.75Z" transform="translate(-1818.41 -1040.71)"/><path class="cls-3" d="M2065.13,1091.71v-44.2h-16.51v-5.91h39.72v5.91h-16.58v44.2Z" transform="translate(-1818.41 -1040.71)"/><path class="cls-3" d="M2091.86,1067.3q0-12.46,6.7-19.53t17.29-7.06a24,24,0,0,1,12.51,3.32,21.65,21.65,0,0,1,8.5,9.24,30,30,0,0,1,2.92,13.45,29.55,29.55,0,0,1-3.08,13.64,21,21,0,0,1-8.71,9.11,24.94,24.94,0,0,1-12.17,3.09,23.7,23.7,0,0,1-12.65-3.42,21.89,21.89,0,0,1-8.44-9.33A28.32,28.32,0,0,1,2091.86,1067.3Zm6.83.11q0,9,4.88,14.27a17,17,0,0,0,24.54-.06q4.83-5.25,4.83-14.93a25.79,25.79,0,0,0-2.06-10.68,15.94,15.94,0,0,0-6.06-7.08,16.41,16.41,0,0,0-8.93-2.51,16.93,16.93,0,0,0-12.12,4.84Q2098.7,1056.09,2098.69,1067.41Z" transform="translate(-1818.41 -1040.71)"/><path class="cls-3" d="M2148.12,1091.71V1041.6h10l11.86,35.48q1.64,5,2.39,7.42c.57-1.83,1.46-4.5,2.67-8l12-34.86h8.92v50.11h-6.4v-41.94L2175,1091.71h-6l-14.49-42.66v42.66Z" transform="translate(-1818.41 -1040.71)"/><path class="cls-3" d="M2201.13,1091.71l19.25-50.11h7.14l20.51,50.11h-7.56l-5.84-15.18h-21l-5.51,15.18Zm14.46-20.58h17l-5.23-13.88q-2.4-6.32-3.56-10.39a63.87,63.87,0,0,1-2.7,9.57Z" transform="translate(-1818.41 -1040.71)"/><path class="cls-3" d="M2253.26,1091.71V1041.6h6.8l26.32,39.34V1041.6h6.35v50.11h-6.8l-26.32-39.38v39.38Z" transform="translate(-1818.41 -1040.71)"/><path class="cls-3" d="M2172.71,1140.71v-5.1h5.1v5.1Z" transform="translate(-1818.41 -1040.71)"/><path class="cls-3" d="M2182,1113.51a9.07,9.07,0,0,1,.75-3.8,8,8,0,0,1,2-2.75,8.33,8.33,0,0,1,2.73-1.6,8.89,8.89,0,0,1,3.07-.55,9.16,9.16,0,0,1,5.85,2.15,8.34,8.34,0,0,1,2,2.75,9.07,9.07,0,0,1,.75,3.8v18.8a9,9,0,0,1-.75,3.85,8,8,0,0,1-2,2.65,8.71,8.71,0,0,1-2.77,1.65,9.23,9.23,0,0,1-3.08.55,9.13,9.13,0,0,1-3.07-.55,8.12,8.12,0,0,1-2.73-1.65,7.74,7.74,0,0,1-2-2.65,9,9,0,0,1-.75-3.85Zm5.1,18.8a3.36,3.36,0,0,0,1,2.72,3.78,3.78,0,0,0,4.85,0,3.39,3.39,0,0,0,1-2.72v-18.8a3.41,3.41,0,0,0-1-2.73,3.81,3.81,0,0,0-4.85,0,3.38,3.38,0,0,0-1,2.73Z" transform="translate(-1818.41 -1040.71)"/><path class="cls-3" d="M2203.41,1140.71v-35.6h4.9l7.7,21.45h.1v-21.45h5.1v35.6h-4.8l-7.8-21.4h-.1v21.4Z" transform="translate(-1818.41 -1040.71)"/><path class="cls-3" d="M2225.81,1140.71v-35.6h5.1v30.5H2241v5.1Z" transform="translate(-1818.41 -1040.71)"/><path class="cls-3" d="M2244.46,1140.71v-35.6h5.1v35.6Z" transform="translate(-1818.41 -1040.71)"/><path class="cls-3" d="M2254.31,1140.71v-35.6h4.9l7.7,21.45h.1v-21.45h5.1v35.6h-4.8l-7.8-21.4h-.1v21.4Z" transform="translate(-1818.41 -1040.71)"/><path class="cls-3" d="M2276.71,1140.71v-35.6h15.2v4.8h-10.1v10.45h8.8v4.8h-8.8v10.45h10.1v5.1Z" transform="translate(-1818.41 -1040.71)"/></svg>