<svg id="Слой_1" data-name="Слой 1" xmlns="http://www.w3.org/2000/svg" viewBox="0 0 443.8 100.6"><defs><style>.cls-1{fill:#e83665;}.cls-2{fill:#fdcc68;}.cls-3{fill:#1d1d1b;}</style></defs><g id="Layer1_0_FILL" data-name="Layer1 0 FILL"><path class="cls-1" d="M1833.67,1040.56l68,100,62-100h-130m67.3,79.15-45.8-67.3h87.5Z" transform="translate(-1833.67 -1040.56)"/><path class="cls-2" d="M1855.17,1052.41l45.8,67.3,41.7-67.3Z" transform="translate(-1833.67 -1040.56)"/></g><g id="Layer0_0_FILL" data-name="Layer0 0 FILL"><path class="cls-1" d="M1909.22,1048.56H1891l-22,40,6.8,10,10.25-16.35h30.9l8.9,15.5,6.85-11-23.45-38.15m.35,23.1h-17.65l7.85-14.1Z" transform="translate(-1833.67 -1040.56)"/></g><path class="cls-3" d="M1978,1042h6.31l24.08,56.64h-7.84l-5.75-13.92h-28.33l-5.84,13.92h-7.6Zm3,8.64h-.16l-11.77,27.84h23.12Z" transform="translate(-1833.67 -1040.56)"/><path class="cls-3" d="M2047.47,1089.73c0,1.7.06,3.31.16,4.8s.16,2.85.16,4.08h-5.92c0-1,0-2-.08-3s-.08-2.06-.08-3.12h-.16a10.68,10.68,0,0,1-1.8,2.64,13,13,0,0,1-2.76,2.28,14.41,14.41,0,0,1-3.6,1.6,14.94,14.94,0,0,1-4.32.6,16.58,16.58,0,0,1-6.36-1.12,12.13,12.13,0,0,1-4.44-3.12,12.68,12.68,0,0,1-2.6-4.84,21.82,21.82,0,0,1-.84-6.2v-23.12h6.24v22.48a12,12,0,0,0,2.08,7.44q2.08,2.72,6.48,2.72a12.18,12.18,0,0,0,5.24-1,9.3,9.3,0,0,0,3.6-3,13.09,13.09,0,0,0,2.08-4.56,23.12,23.12,0,0,0,.68-5.84v-18.24h6.24Z" transform="translate(-1833.67 -1040.56)"/><path class="cls-3" d="M2079.8,1066.45h-11v18.72c0,1.22,0,2.36.08,3.4a7.07,7.07,0,0,0,.63,2.72,4.45,4.45,0,0,0,1.68,1.84,6.27,6.27,0,0,0,3.2.68,13.08,13.08,0,0,0,2.8-.32,12.62,12.62,0,0,0,2.73-1l.23,5.68a14.39,14.39,0,0,1-3.56,1,23.35,23.35,0,0,1-3.71.32,13.69,13.69,0,0,1-5.37-.88,7.4,7.4,0,0,1-3.12-2.48,9.22,9.22,0,0,1-1.47-4,33.63,33.63,0,0,1-.37-5.24v-20.56h-8.16v-5.28h8.16v-10.64h6.25v10.64h11Z" transform="translate(-1833.67 -1040.56)"/><path class="cls-3" d="M2085.31,1079.89a20.41,20.41,0,0,1,1.52-8,19,19,0,0,1,4.16-6.2,18.42,18.42,0,0,1,6.32-4,22.94,22.94,0,0,1,16,0,18.32,18.32,0,0,1,6.32,4,18.84,18.84,0,0,1,4.16,6.2,21.81,21.81,0,0,1,0,16,18.94,18.94,0,0,1-4.16,6.2,18.47,18.47,0,0,1-6.32,4,22.94,22.94,0,0,1-16,0,18.57,18.57,0,0,1-6.32-4,19.1,19.1,0,0,1-4.16-6.2A20.44,20.44,0,0,1,2085.31,1079.89Zm6.72,0a16,16,0,0,0,.92,5.48,12.64,12.64,0,0,0,6.88,7.36,14.44,14.44,0,0,0,11,0,12.64,12.64,0,0,0,6.88-7.36,16.78,16.78,0,0,0,0-11,12.64,12.64,0,0,0-6.88-7.36,14.44,14.44,0,0,0-11,0,12.64,12.64,0,0,0-6.88,7.36A15.92,15.92,0,0,0,2092,1079.89Z" transform="translate(-1833.67 -1040.56)"/><path class="cls-3" d="M2135,1070.05c0-1.71,0-3.31-.16-4.8s-.16-2.86-.16-4.08h5.92c0,1,0,2,.08,3s.08,2,.08,3.12h.16a10.86,10.86,0,0,1,1.8-2.64,12.91,12.91,0,0,1,2.76-2.28,14.74,14.74,0,0,1,3.6-1.6,15,15,0,0,1,4.32-.6,14.58,14.58,0,0,1,5.08.76,12.12,12.12,0,0,1,3.4,1.84,8.79,8.79,0,0,1,2.12,2.32c.51.82.92,1.56,1.24,2.2a17.35,17.35,0,0,1,4.8-5.24,12.09,12.09,0,0,1,7-1.88,18.27,18.27,0,0,1,6.72,1.08,10.63,10.63,0,0,1,4.4,3.12,12.29,12.29,0,0,1,2.4,5,27.23,27.23,0,0,1,.72,6.52v22.72h-6.24v-22.4a17.39,17.39,0,0,0-.4-3.76,8.46,8.46,0,0,0-1.44-3.28,7.39,7.39,0,0,0-2.8-2.32,9.93,9.93,0,0,0-4.48-.88,8.91,8.91,0,0,0-3.76.8,9.42,9.42,0,0,0-3.08,2.24,10.57,10.57,0,0,0-2.08,3.48,13,13,0,0,0-.76,4.52v21.6H2160v-21.2q0-6.24-1.68-8.84c-1.12-1.74-3-2.6-5.52-2.6a12.1,12.1,0,0,0-5.24,1,9.36,9.36,0,0,0-3.6,3,13.46,13.46,0,0,0-2.08,4.56,23.52,23.52,0,0,0-.68,5.84v18.24H2135Z" transform="translate(-1833.67 -1040.56)"/><path class="cls-3" d="M2202.67,1066a17.59,17.59,0,0,1,6.84-4.36,23.8,23.8,0,0,1,8-1.4q8.32,0,12,3.92t3.68,11.92v16.08c0,1.06.06,2.17.16,3.32s.24,2.2.4,3.16h-6a13.59,13.59,0,0,1-.36-2.84c0-1,0-2,0-2.76h-.16a14.55,14.55,0,0,1-4.92,4.72,14.23,14.23,0,0,1-7.4,1.84,19.58,19.58,0,0,1-5.4-.72,13.63,13.63,0,0,1-4.4-2.12,10.69,10.69,0,0,1-3-3.48,10.06,10.06,0,0,1-1.12-4.8,10.41,10.41,0,0,1,2.4-7.28,14.55,14.55,0,0,1,6-3.92,28.94,28.94,0,0,1,7.68-1.6c2.75-.22,5.27-.32,7.56-.32h2.4v-1.12c0-2.72-.81-4.78-2.44-6.16a10.22,10.22,0,0,0-6.84-2.08,18.19,18.19,0,0,0-6,1,14.2,14.2,0,0,0-5.16,3.08Zm18.08,14.64a22.41,22.41,0,0,0-9.52,1.68,5.7,5.7,0,0,0-3.52,5.52q0,3.51,2.36,5a10.91,10.91,0,0,0,5.88,1.48,11.55,11.55,0,0,0,4.76-.92,10.08,10.08,0,0,0,3.4-2.44,10.54,10.54,0,0,0,2.08-3.56,14.46,14.46,0,0,0,.8-4.36v-2.4Z" transform="translate(-1833.67 -1040.56)"/><path class="cls-3" d="M2244.67,1070.05c0-1.71-.05-3.31-.16-4.8s-.16-2.86-.16-4.08h5.92c0,1,0,2,.08,3s.08,2,.08,3.12h.16a10.86,10.86,0,0,1,1.8-2.64,12.43,12.43,0,0,1,2.76-2.28,14.74,14.74,0,0,1,3.6-1.6,14.94,14.94,0,0,1,4.32-.6,16.4,16.4,0,0,1,6.36,1.12,11.74,11.74,0,0,1,4.44,3.12,12.48,12.48,0,0,1,2.6,4.84,21.77,21.77,0,0,1,.84,6.2v23.12h-6.24v-22.48a11.94,11.94,0,0,0-2.08-7.44c-1.39-1.82-3.55-2.72-6.48-2.72a12.07,12.07,0,0,0-5.24,1,9.21,9.21,0,0,0-3.6,3,13.46,13.46,0,0,0-2.08,4.56,23.52,23.52,0,0,0-.68,5.84v18.24h-6.24Z" transform="translate(-1833.67 -1040.56)"/><path class="cls-3" d="M2158.27,1140.86v-5.1h5.1v5.1Z" transform="translate(-1833.67 -1040.56)"/><path class="cls-3" d="M2167.57,1113.66a9.07,9.07,0,0,1,.75-3.8,8,8,0,0,1,2-2.75,8.33,8.33,0,0,1,2.73-1.6,9.06,9.06,0,0,1,8.92,1.6,8.34,8.34,0,0,1,2,2.75,9.07,9.07,0,0,1,.75,3.8v18.8a9,9,0,0,1-.75,3.85,8,8,0,0,1-2,2.65,8.71,8.71,0,0,1-2.77,1.65,8.87,8.87,0,0,1-6.15,0,8.12,8.12,0,0,1-2.73-1.65,7.74,7.74,0,0,1-2-2.65,9,9,0,0,1-.75-3.85Zm5.1,18.8a3.36,3.36,0,0,0,1,2.72,3.78,3.78,0,0,0,4.85,0,3.39,3.39,0,0,0,1-2.72v-18.8a3.41,3.41,0,0,0-1-2.73,3.81,3.81,0,0,0-4.85,0,3.38,3.38,0,0,0-1,2.73Z" transform="translate(-1833.67 -1040.56)"/><path class="cls-3" d="M2189,1140.86v-35.6h4.9l7.7,21.45h.1v-21.45h5.1v35.6H2202l-7.8-21.4h-.1v21.4Z" transform="translate(-1833.67 -1040.56)"/><path class="cls-3" d="M2211.37,1140.86v-35.6h5.1v30.5h10.1v5.1Z" transform="translate(-1833.67 -1040.56)"/><path class="cls-3" d="M2230,1140.86v-35.6h5.1v35.6Z" transform="translate(-1833.67 -1040.56)"/><path class="cls-3" d="M2239.87,1140.86v-35.6h4.9l7.7,21.45h.1v-21.45h5.1v35.6h-4.8l-7.8-21.4h-.1v21.4Z" transform="translate(-1833.67 -1040.56)"/><path class="cls-3" d="M2262.27,1140.86v-35.6h15.2v4.8h-10.1v10.45h8.8v4.8h-8.8v10.45h10.1v5.1Z" transform="translate(-1833.67 -1040.56)"/></svg>