<svg xmlns="http://www.w3.org/2000/svg" xmlns:xlink="http://www.w3.org/1999/xlink" viewBox="0 0 769.9 803.86"><defs><style>.cls-1{isolation:isolate;}.cls-2{fill:#d9dee2;}.cls-3,.cls-4{fill:#2e57ab;}.cls-27,.cls-28,.cls-29,.cls-3,.cls-30{fill-rule:evenodd;}.cls-20,.cls-21,.cls-22,.cls-5,.cls-7{fill:#212430;}.cls-5,.cls-8{opacity:0.23;}.cls-18,.cls-20,.cls-21,.cls-22,.cls-5,.cls-7{mix-blend-mode:overlay;}.cls-6{fill:#e83464;}.cls-7{opacity:0.35;}.cls-8{fill:#6e2430;}.cls-29,.cls-9{fill:#fff;}.cls-10{fill:#e9ad69;}.cls-11,.cls-16{fill:#d29149;}.cls-11{opacity:0.85;}.cls-12{fill:#ebbf85;}.cls-13{fill:#d9a164;}.cls-14,.cls-28{fill:#4b2460;}.cls-15{fill:#3d332d;}.cls-17{fill:#483331;}.cls-18{fill:#262935;opacity:0.39;}.cls-19{fill:#d4ccd4;}.cls-20{opacity:0.25;}.cls-21{opacity:0.45;}.cls-22{opacity:0.4;}.cls-23{fill:#535251;opacity:0.52;}.cls-24{opacity:0.36;}.cls-25{fill:#6b6460;}.cls-26{opacity:0.63;}.cls-27{fill:url(#linear-gradient);}.cls-30,.cls-31{fill:#703a93;}.cls-32{fill:#7c8ac4;}.cls-33,.cls-34{opacity:0.21;}.cls-33{fill:url(#linear-gradient-2);}.cls-34{fill:url(#linear-gradient-3);}.cls-35{fill:#b4c5cd;}.cls-36{fill:#fc6;}</style><linearGradient id="linear-gradient" x1="598.03" y1="268.56" x2="781.17" y2="268.56" gradientUnits="userSpaceOnUse"><stop offset="0" stop-color="#fe62ce"/><stop offset="0.15" stop-color="#f861d0"/><stop offset="0.33" stop-color="#e85fd4"/><stop offset="0.54" stop-color="#ce5bdc"/><stop offset="0.77" stop-color="#a956e7"/><stop offset="1" stop-color="#7b4ff5"/></linearGradient><linearGradient id="linear-gradient-2" x1="555.72" y1="285.74" x2="821.64" y2="285.74" xlink:href="#linear-gradient"/><linearGradient id="linear-gradient-3" x1="539.19" y1="281.7" x2="856.43" y2="281.7" xlink:href="#linear-gradient"/></defs><g class="cls-1"><g id="image"><rect class="cls-2" y="799.52" width="769.9" height="4.34"/><path class="cls-3" d="M775.41,322.74c-52.7-.26-170.32,0-170.32,0-9.25,0-16.26-4.4-16.26-9.84h197S784,322.78,775.41,322.74Z" transform="translate(-121.2 -114.72)"/><path class="cls-4" d="M605.11,400.2l-17-25.75-55-35.47-14.37-5.69L464,371.38l.9,31.92s29.89,9.67,38.9,12.52c37.23,40.9,80.41,30.59,118.32,39.86,7.29-5.88,10.25-8.13,22.59-24.89,3.81-7.1,16.7-39.21,20.65-46.93-14.07-1.36-18.46-5.43-28.33-14.21l-18,11.76Z" transform="translate(-121.2 -114.72)"/><polygon class="cls-5" points="469.07 285.07 480.77 290.21 483.89 285.99 471.02 265.65 474.21 279.76 469.07 285.07"/><polygon class="cls-5" points="386.85 287.14 394.87 286.41 398.95 275.77 401.36 291.44 395.91 292.02 386.85 287.14"/><path class="cls-6" d="M654.45,322.78,653,337.26l-3.2,10.86-23.13,28.45c1.17,9.1,12.27,34.43,25.58,38.13,8.48-18.14,20.1-37.65,23.77-45.81,1.1-2.44,15.23-19.31,15.23-19.31L740,333l10.74-10.2H739l-54.46,2.92-9.12-2.92Z" transform="translate(-121.2 -114.72)"/><polygon class="cls-5" points="503.44 310 517.76 289.16 539.63 254.49 527.98 285.94 518.02 299.16 503.44 310"/><polygon class="cls-7" points="485.04 326.57 496.39 330.38 507.79 319.86 495.04 325.71 485.04 326.57"/><polygon class="cls-5" points="356.13 267.41 354.35 258.92 357.39 255.6 361.6 263.8 356.13 267.41"/><polygon class="cls-8" points="535.73 213.06 544.12 215.37 541.03 217.76 534.41 223.89 536.41 218.75 535.73 213.06"/><polygon class="cls-7" points="419.41 297.04 433.88 312.25 444.78 312.9 435.12 307.41 419.41 297.04"/><path class="cls-9" d="M492.57,757.34h0Z" transform="translate(-121.2 -114.72)"/><path class="cls-4" d="M306.31,338.74c9.08-3.94,31.58-15.51,31.58-15.51l42.26-15,26.8-5s23.32,3,33.92,4.24c15.56,8,41.6,7.62,78,25.8l15.33,21.44c16.23,27.38-19.35,66.57-19.35,66.57l-21.54,34.59L466.91,505s11.64,48.94,18.84,82.89c-14.54,7.27-135.81,9.22-135.81,9.22l4.31-2.16-6.06-5.15-6.05-27.86,12.11-70.27-28.62-62.54-5.9-10.9C316.93,385.9,302.37,371.37,306.31,338.74Z" transform="translate(-121.2 -114.72)"/><path class="cls-4" d="M238,402.79c11.36-13.62,20-20.89,23.93-25.44.6-3.63,3.1-8.78,3.71-11.81,7-10.84,20.06-19.68,27.94-26.35,3.33-.71,7.11,0,16.8-1.81,13.63-6.06,44.13-20.81,51.49-23-3.94,34.09-20.29,69.05-33,98.13l-6.06,3-3.63,29.07-29.44,25.83L299.49,500c-3.91,9.67,10.63,24.48,6.15,34L267.09,519.7S241.65,507,220.45,488.2C219.53,476.23,227.56,430.05,238,402.79Z" transform="translate(-121.2 -114.72)"/><path class="cls-4" d="M392.47,581.48l-4.15-24.74L473,542.11s22.71,73.29,30.89,110.54a548.78,548.78,0,0,1-4.24,59.06c2.88,17.57,18.76,34,25.67,60.32-2.91,7.2-.28,42.93-6.34,44.86-11.93,3.8-33.66-18.09-46.21-24.41-4.54-13-5.1-29.42-5.15-29.68-1.82-10.3-1.74-25-5.83-38.67-5.75-15.45-24.83-47.25-33.31-64.21-8.18-16.35-26-67.63-26-67.63Z" transform="translate(-121.2 -114.72)"/><path class="cls-4" d="M273.48,755.09c4.24-11.74,22.07-47.32,22.07-47.32a258.86,258.86,0,0,0,3.11-48.86c4.54-14.53,10.27-33.5,15.44-45.42l31.07-77.35,54.91,18.6L414.88,593s-20,37-46.64,80.86c-11.19,18.44-15.88,26.07-28.47,46A105.24,105.24,0,0,0,324.93,762c-2.37,16.2-8.78,34.53-8.78,34.53-15.45.91-31.83-2.62-50.7-5.57C267.27,778.22,270.34,763.8,273.48,755.09Z" transform="translate(-121.2 -114.72)"/><polygon class="cls-10" points="253.13 136.82 250.68 194.19 240.99 200.25 294.74 225.17 345.55 202.57 329.58 195.05 319.1 152.53 253.13 136.82"/><polygon class="cls-11" points="252.87 133.97 251.06 165.77 280.08 196.59 322.55 192.75 328 189.72 328 173.37 291.86 155.15 252.87 133.97"/><path class="cls-12" d="M373.66,225c.06,1.22.37,4.05-1.8,4.74a88.22,88.22,0,0,0,3.22,11.57c5.79,16.35,6.44,19.38,10.05,30.15,6,9.89,5.19,18.49,8.07,23.8,2.15.37,15,5.83,20.74,6.5,13.07-.22,31.34-2.17,37.43-3.77.79-.38,4.47-3,11.28-7.09,1.6-5.26,1.37-13.17,2.73-21.8-3.54-4.88-5.91-8.18-9.58-13-2.08-3.54-3.35-7.26-4.8-10.06.11-3,.43-5.86.3-10.3-1.76-4.14-6.16-12.82-8.35-17.88l-4.57-20.08s-.94-6.18-.46-7C412.44,185.8,378.91,192.38,373.66,225Z" transform="translate(-121.2 -114.72)"/><polygon class="cls-13" points="320.24 109.12 322.22 113.19 321.07 117.12 316.15 120.04 311.58 121.47 308.76 115.52 308.56 107.89 320.24 109.12"/><path class="cls-14" d="M422.23,150.83c-.16,4.43.12,12.72-10.69,16.12-17.51,5.51-26.9,12.1-35.91,16.59a126.83,126.83,0,0,0-14.92,13.14c-.9,11.49,4.73,17,4.73,17,.42,5.59,4.86,12.82,7.61,21.8,2.17-.69,6.78-.73,6.72-2,.37-9.3-1.13-16.09,2.68-23.49,4.14-1.33,9-3.3,16.95-3.6,11.06,1.52,24.33,6.73,40.64-5.82C451,187.21,458.28,158.47,422.23,150.83Z" transform="translate(-121.2 -114.72)"/><path class="cls-12" d="M365.4,233.17c1-5.55,5.41-4.47,7.16-3.82a8.15,8.15,0,0,1,5.33,5.56c.7,2,1.81,5,1.21,7l-.51,13.26-4.88-1.12S364.89,236,365.4,233.17Z" transform="translate(-121.2 -114.72)"/><polygon class="cls-15" points="321.64 106.7 311.49 101.96 308.15 107.61 321.38 109.48 321.64 106.7"/><path class="cls-9" d="M399.51,253.4l21.86,4.47L439.49,255l7.25-7.42s1.25,17.72-1.87,22.38c-3.77,5.63-17.45,9.25-26.15,4.09C412.84,270.54,399.51,253.4,399.51,253.4Z" transform="translate(-121.2 -114.72)"/><polygon class="cls-16" points="299.1 131.36 314.45 129.58 310.39 135.11 306.4 136.73 299.1 131.36"/><polygon class="cls-13" points="289.16 108.31 296.74 108.58 296.76 117.1 293.48 125.23 279.24 122.87 275.09 119.3 274.8 113.12 289.16 108.31"/><polygon class="cls-17" points="286.55 113.93 293.94 113.41 295.26 115.65 279.07 119.28 286.55 113.93"/><polygon class="cls-15" points="275.8 109.88 293.63 102.35 296.45 108.69 276 113.93 275.8 109.88"/><polygon class="cls-17" points="309.94 112.9 314.7 111.97 320.43 114.75 309.21 114.87 309.94 112.9"/><path class="cls-13" d="M378.31,241.07c-1.13-2.56-8.53-8.18-8.53-8.18l.09,5.13,4.35,11.23,2-2.73,4.09,3.63S375.8,242.84,378.31,241.07Z" transform="translate(-121.2 -114.72)"/><polygon class="cls-13" points="308.68 169.5 320.49 168.59 317.76 172.23 313.67 172.68 308.68 169.5"/><path class="cls-6" d="M478.1,320.92l-61.61,29.57-60.67-34L349,319.66l67.48,52.64s69.48-46.68,69.79-48.2Z" transform="translate(-121.2 -114.72)"/><path class="cls-18" d="M507.86,393.63l-4.7,14.69-15.75,21.2-64.51-5.45,33.84,13.19,27,7.4a10.77,10.77,0,0,0,9.69-6.05l13.93-28.47Z" transform="translate(-121.2 -114.72)"/><path class="cls-18" d="M308.14,388.42l15.22,20.22,10,7.27,59.06,7.27,8.48-5.15-4.24,8.48-31.5,5.15-20.21,3.78c-4,.1-13.4-3.18-19.76-5.9l-9.7-23.32Z" transform="translate(-121.2 -114.72)"/><path class="cls-5" d="M402.23,615.91c1.22.45-16-28.65-24.07-36.5a373.25,373.25,0,0,0-36.87-31.24l5.39-10.51L407,578.24l4.75,19.45Z" transform="translate(-121.2 -114.72)"/><path class="cls-5" d="M411.32,614.7c8.39-8.12,34.6-36.94,47.25-45.28,4.57-3,20-10.9,20-10.9L473.1,540.8l-49.19,42.28L405.8,604.2Z" transform="translate(-121.2 -114.72)"/><path class="cls-4" d="M373.29,229.26s30.77-11.92,49.45-13.54C435.6,214.6,444,217.2,444,217.2l6.4,14.08s-1.95,6.89-7.72,7.25c-3.46.21-9.85-3.92-14-3.74-3.35.15-6.55,6.44-19.14,7.88-5.05.58-14.53-4.73-18.82-5.94-3.53-1-12.32-.48-12.32-.48Z" transform="translate(-121.2 -114.72)"/><path class="cls-12" d="M394.62,229.14c0-3.63,13.49-5.42,13.49-5.42s10.75-.33,11.7,2.67-4.6,8.06-7.38,8.71C407.07,236.36,394.63,233.65,394.62,229.14Z" transform="translate(-121.2 -114.72)"/><path class="cls-12" d="M429.84,226.64c.58,1.76,5.46,3.63,7.76,4.43,6.22,2.19,9.31-1.41,8.63-4.08-.55-2.16-2-2.91-3.39-3.59a12.74,12.74,0,0,0-8.1-.85C431.77,223.4,429.22,224.73,429.84,226.64Z" transform="translate(-121.2 -114.72)"/><polygon class="cls-14" points="278.47 117.64 285.81 112.11 295.96 112.94 278.47 117.64"/><polygon class="cls-14" points="311.63 112.72 317.92 109.99 323.67 113.17 311.63 112.72"/><path class="cls-19" d="M414.72,263.27c.33.13,12.73.88,12.73.88l16.09-2.81-9.74,4.07-10.63-.08Z" transform="translate(-121.2 -114.72)"/><polygon class="cls-13" points="321.96 130.85 327 130.44 329.12 137.02 325.13 133.04 321.96 130.85"/><polygon class="cls-13" points="278.05 146.2 271.43 136.79 286.65 132.92 278.75 138.23 278.05 146.2"/><polygon class="cls-5" points="177.39 347.74 168.3 355.91 159.82 357.73 155.58 345.01 161.64 350.46 177.39 347.74"/><polygon class="cls-20" points="273.7 211.75 221.45 218.57 260.52 207.66 273.7 211.75"/><polygon class="cls-20" points="333.45 262.12 306.65 255.3 298.02 258.48 333.45 262.12"/><polygon class="cls-16" points="256.96 167.59 261.5 188.94 262.41 171.22 256.96 167.59"/><polygon class="cls-16" points="275.59 191.67 287.85 213.47 286.2 193.97 275.59 191.67"/><path class="cls-6" d="M349.46,520l-1.81,15.9-5.46,9.54L335.83,560,324,558.16,310.09,547l-7.87-4.84-42-23.47c.63-10.05,25.68-25.5,35.68-29.14l13.4,24.76,10.45,9.54,8.4.91,14.54-6.59Z" transform="translate(-121.2 -114.72)"/><polygon class="cls-7" points="110.15 353.49 107.12 369.24 116.82 374.69 111.97 366.82 110.15 353.49"/><path class="cls-21" d="M457.83,494.05,436,468.61l-34.52-.91s-24.53,20-23.63,22.71c7.27-1.81,30.9-12.72,30.9-12.72l20,2.73Z" transform="translate(-121.2 -114.72)"/><path class="cls-5" d="M442.14,500.92l-9.54.46-16.81-7.27,2.27,8.17s13.18,5,15.9,5A85.07,85.07,0,0,1,442.14,500.92Z" transform="translate(-121.2 -114.72)"/><path class="cls-5" d="M390.74,497.23l14.85,1.36,9.08-6.21-1.21,8.48s-10.91,4.85-13.63,4.85C396.19,504.8,390.74,497.23,390.74,497.23Z" transform="translate(-121.2 -114.72)"/><path class="cls-5" d="M474.18,716.34l10.9,4.24,5.46-7.11,1.21,9.54a11.29,11.29,0,0,1-3.64,8.48C485.84,729.22,474.18,716.34,474.18,716.34Z" transform="translate(-121.2 -114.72)"/><path class="cls-5" d="M300.34,714.53l6.12,4.45L318,717.77l-11.51,13.32s-6.66,1.21-9.6-3.24C298.22,724.67,300.34,714.53,300.34,714.53Z" transform="translate(-121.2 -114.72)"/><path class="cls-5" d="M484.54,701.56l7.88-1.36,10.29-16.35-3,17.57a44.87,44.87,0,0,1-1.81,11.5C495.6,710.65,484.54,701.56,484.54,701.56Z" transform="translate(-121.2 -114.72)"/><path class="cls-5" d="M295.4,690.36l5.61,8,10.29-.75s-9.08,8-14.53,12.26C294.49,707.62,295.4,690.36,295.4,690.36Z" transform="translate(-121.2 -114.72)"/><polygon class="cls-22" points="125.83 371.45 142.13 391.98 176.22 413.25 155.95 395.46 145.88 388.47 125.83 371.45"/><polygon class="cls-20" points="169.52 239.92 177.39 234.47 179.21 237.5 182.08 228.94 174.06 231.44 169.52 239.92"/><polygon class="cls-5" points="294.54 399.16 318.46 406.73 303.32 408.86 294.54 399.16"/><polygon class="cls-5" points="275.51 406.64 291.51 399.92 287.63 409.22 275.51 406.64"/><polygon class="cls-5" points="235 553.88 214.41 577.21 201.31 586.99 223.34 584.62 264.23 521.48 235 553.88"/><path class="cls-5" d="M443.57,673.45c10.45,15.9,19.54,22.72,19.54,22.72h11.81l-13.33,15.15-8-15.6S447.21,682.08,443.57,673.45Z" transform="translate(-121.2 -114.72)"/><path class="cls-6" d="M474.62,538s-46.09-2.39-58.83-3c-24.84-1.1-71.32,2.27-71.32,2.27a53,53,0,0,0-2.28,9.09c36.2,13.26,64.51,62.09,64.51,62.09L414,606s19-19.44,35.38-35.19c20.12-19.38,28.22-18.56,28.22-18.56Z" transform="translate(-121.2 -114.72)"/><path class="cls-14" d="M413.67,157.78s6.34,4.19,2,9.34,10.08-.78,10.08-.78S424.57,155.06,413.67,157.78Z" transform="translate(-121.2 -114.72)"/><path class="cls-23" d="M405.19,169.59s7.6-1.88,9.39-3.93c5.33-2.29,8.46,2.06,10.72,2.71,7,2,5.68-1.9,7.64-1.85,6.05.16,4,4.82,6.28,5.24,2.45.46,9.28-.35,9.28-.35s1.44,13.63-1.82,15.75c-2.17,1.41-6.41-1.83-10.25,1.41-2,1.67-2.86-4.16-10.18-1.93-2.33.71-2.27-7.93-4.62-8.59-2.09-.59-5.67,2.29-7.73,1.6S405.19,169.59,405.19,169.59Z" transform="translate(-121.2 -114.72)"/><g class="cls-24"><path class="cls-25" d="M383.43,208.85l-.55-.73,28.35-21.26c14.73-11,19.32-22.45,14-34.89l.84-.36c5.47,12.88.79,24.65-14.32,36Z" transform="translate(-121.2 -114.72)"/></g><g class="cls-26"><path class="cls-25" d="M423.36,208.21a.46.46,0,0,1-.32-.78c.31-.3,30.29-30.13,14.2-49.66a.46.46,0,0,1,.71-.58c16.61,20.17-14,50.58-14.27,50.89A.48.48,0,0,1,423.36,208.21Z" transform="translate(-121.2 -114.72)"/></g><polygon class="cls-13" points="265.72 138.34 270.06 146.79 274.61 155.88 267.23 150.75 265.72 138.34"/><polygon class="cls-12" points="307.8 183.53 313.12 188.41 325.96 186.86 328.18 180.43 307.8 183.53"/><polygon class="cls-13" points="316.74 181.76 318.95 179.4 320.13 183.39 319.25 185.01 316.74 181.76"/><path class="cls-6" d="M525.35,772c2.27,35,8.28,92.74,10.37,100.27,1.14,4.08,6.06,11.93,9.54,16.35,2.42,3.07,24.36,19.69,24.36,19.69v5.9H508.93a81.92,81.92,0,0,1-1.39-11.6c.23-5.91,2.74-15.57.47-26-3-11.91-6.36-19.54-11.81-27.71-3.46-8.41-19.54-34.53-19.54-34.53s-3.45-14.41-5.9-27C485.3,782.58,514.44,776.27,525.35,772Z" transform="translate(-121.2 -114.72)"/><polygon class="cls-5" points="417.2 243.44 413.39 235.65 408.95 234.9 410.67 243.95 417.2 243.44"/><path class="cls-6" d="M243.19,883.21c4.6-7.24,8.15-27.34,8.15-27.34,9.31-58.92,11.88-62.94,17.33-93.38,7.57,4.24,50.77,29,50.77,29l-10,25.8s-28.91,40.39-36.06,59.51c-6.06,16.22-3.36,24.83-3.36,24.83v11.39H209.12l1.37-7.76S235.55,895.22,243.19,883.21Z" transform="translate(-121.2 -114.72)"/><polygon class="cls-8" points="214.34 413.46 221.6 417.7 226.52 419.04 227.66 411.64 218.58 414.06 214.34 413.46"/><polygon class="cls-7" points="148.31 282.93 133.17 297.46 131.35 325.93 138.62 303.22 148.31 282.93"/><path class="cls-8" d="M512.63,893.06,510,907l10.75-1.51s.42-.6-3.63-5.45A33.86,33.86,0,0,1,512.63,893.06Z" transform="translate(-121.2 -114.72)"/><path class="cls-5" d="M418.13,608.94s18.18,36.8,26.35,48.61c-5.45-14.08-20.89-55-20.89-55Z" transform="translate(-121.2 -114.72)"/><path class="cls-27" d="M667.8,247.1c1.65-.83,4.06-1.91,4.71-2.15,15.54-5.77,42.49-5,58.93-1.08,5.62,1.35,27.73,13.57,29.86,14.46a21.6,21.6,0,0,0,10.45,2.14,11,11,0,0,1,3.44.31c1.26.48,1.48,1.51,2.34,4.46.28.63,3.53,13.42,3.58,14,.41,4.62-1.1,11.28-5.07,12.26l-17.21,4.87H616.56l-17.24-.61c-2.7-6.43-1.28-22.36,5.43-24.38s15.45-4.3,24.17-6.78a121.43,121.43,0,0,0,19.94-8Z" transform="translate(-121.2 -114.72)"/><path class="cls-3" d="M630.47,275.88a15.68,15.68,0,0,1,14.92,20.47H615.55a15.91,15.91,0,0,1-.75-4.8A15.67,15.67,0,0,1,630.47,275.88Z" transform="translate(-121.2 -114.72)"/><path class="cls-28" d="M630.47,305.51a14,14,0,1,0-14-14A14,14,0,0,0,630.47,305.51Z" transform="translate(-121.2 -114.72)"/><path class="cls-3" d="M630.47,299.63a8.09,8.09,0,1,0-8.08-8.08A8.1,8.1,0,0,0,630.47,299.63Z" transform="translate(-121.2 -114.72)"/><path class="cls-3" d="M744.64,275.88a15.67,15.67,0,0,1,15,20.27l-.79.2h-29.1a15.68,15.68,0,0,1,14.91-20.47Z" transform="translate(-121.2 -114.72)"/><path class="cls-28" d="M744.64,305.51a14,14,0,1,0-14-14A14,14,0,0,0,744.64,305.51Z" transform="translate(-121.2 -114.72)"/><path class="cls-3" d="M744.64,300.08a8.54,8.54,0,1,0-8.53-8.53A8.56,8.56,0,0,0,744.64,300.08Z" transform="translate(-121.2 -114.72)"/><path class="cls-29" d="M724.55,244.93a122.87,122.87,0,0,0-22.48-1.78c-10.76.09-21.36,1.3-28.73,4l-28.8,15.56,8.66,4.11,45.25-2.21,40-1.53,10.11-5.23c-4.68-3.38-8.69-7-13.45-9.48A34.25,34.25,0,0,0,724.55,244.93Z" transform="translate(-121.2 -114.72)"/><polygon class="cls-30" points="537.44 140.4 537.12 151.88 532 152.13 523.34 148.02 537.44 140.4"/><rect class="cls-31" x="563.36" y="155.97" width="9.24" height="1.66" rx="0.7"/><rect class="cls-31" x="604.6" y="154.39" width="9.24" height="1.66" rx="0.7"/><path class="cls-29" d="M607.83,273.77h.79c3.36.11,2.83,3.88.45,4.73a75.22,75.22,0,0,1-7.66,1.89,12.23,12.23,0,0,1,2.51-6.11Z" transform="translate(-121.2 -114.72)"/><path class="cls-29" d="M776.12,267.38h-4.65a1.73,1.73,0,0,0-1.82,1.81l.52,3.07a2,2,0,0,0,1.82,1.82h5.85Z" transform="translate(-121.2 -114.72)"/><path class="cls-30" d="M645.6,263.07l-1.06-.33,28.8-15.56c7.38-2.73,18-3.94,28.73-4a123.72,123.72,0,0,1,22.48,1.79,34.39,34.39,0,0,1,9.08,2.68,53,53,0,0,1,10.2,6.67l4.73,3.6-.83.36-4.63-3.53a51.6,51.6,0,0,0-10-6.44,33.17,33.17,0,0,0-8.7-2.55,119.48,119.48,0,0,0-22.34-1.78,124.14,124.14,0,0,0-15.54,1,60.38,60.38,0,0,0-12.87,2.95Z" transform="translate(-121.2 -114.72)"/><polygon class="cls-30" points="581.77 128.42 577.57 149.46 576.38 178.57 575.6 178.18 576.78 149.36 580.95 128.57 581.77 128.42"/><polygon class="cls-30" points="575.6 178.18 599.73 177.72 618.65 151.72 606.39 131.46 607.07 131.06 619.58 151.72 600.17 178.5 576.14 178.95 575.6 178.18"/><polygon class="cls-30" points="617.06 147.6 577.23 149.15 532.11 151.33 524.28 147.51 523.34 148.02 532 152.13 577.26 149.94 617.26 148.39 627.37 143.16 626.66 142.64 617.06 147.6"/><path class="cls-3" d="M656.32,267.35c.34.64,1.12.74,2.6.82s2.87.38,2.88-2.4-.18-5.06-1.51-5.2a5.63,5.63,0,0,0-3.69.81C655.12,262.79,655.54,265.93,656.32,267.35Z" transform="translate(-121.2 -114.72)"/><path class="cls-32" d="M790.49,312.94c-70.52-.44-152.63,0-215.19,0-4.48,0-4.2-8-.18-7.9,79.33,1.63,211.82-1.66,211.82-1.66C798.56,303.38,793,313,790.49,312.94Z" transform="translate(-121.2 -114.72)"/><path class="cls-33" d="M692.39,412.9c-8.09,0-25.37-2.06-25.18-4s19.45.79,27.49-.3c69.4-9.44,119.63-55.8,119.63-120.86S745.81,168.52,680.75,168.52s-114.28,53-118,118c-1.47,25.84,13.14,47.42,11.6,48.61-2.65,2.05-18.64-21.39-18.64-48.61,0-68.94,58.52-127.94,127.46-127.94,78.87,0,138.46,60.05,138.46,129S761.73,412.9,692.39,412.9Z" transform="translate(-121.2 -114.72)"/><path class="cls-34" d="M699.89,434.58c-9.61-.26-36.92-3.77-36.7-6.06s21,.65,39.78-.9c96.34-7.93,143.94-70.38,143.94-147.62s-67-145.39-169.13-142.74c-78.62,2-111.48,55.62-125.84,98.94-8.68,26.19-12.62,56.95-12.74,47-.81-67.79,37.44-149.18,140.26-154.22,102.61-5,177,64.13,177,152.79C856.43,363.64,799.27,437.23,699.89,434.58Z" transform="translate(-121.2 -114.72)"/><path class="cls-35" d="M261.37,234.62,247,217.19l38.58-7.51Zm-8.86-15.45,9,11,15.2-15.67Z" transform="translate(-121.2 -114.72)"/><path class="cls-35" d="M740.53,501.08l-12.07-15.91,24.76-.59ZM734.39,488l6.16,8.11,6.47-8.41Z" transform="translate(-121.2 -114.72)"/><path class="cls-35" d="M587.08,786.88l-19.27-26.57h19.27ZM573.7,763.31l10.38,14.32V763.31Z" transform="translate(-121.2 -114.72)"/><polygon class="cls-35" points="56.78 543.44 45.73 518.74 60.24 524.43 59.14 527.23 51.47 524.22 59.52 542.22 56.78 543.44"/><path class="cls-35" d="M856.24,694.58l-278.3-27.26,14.77-119.94h82.8l20-26.37,11.95,27.35L841,552.29Zm-275-30,271.58,26.61-14.6-136-132.83-3.9-10.67-24.4L677,550.39H595.37Z" transform="translate(-121.2 -114.72)"/><rect class="cls-35" x="570.34" y="404.89" width="3" height="1.5"/><path class="cls-35" d="M694.54,513.59h-3v-3h3Zm0-9h-3v-3h3Zm0-9h-3v-3h3Zm0-9h-3v-3h3Zm0-9h-3v-3h3Zm0-9h-3v-3h3Zm0-9h-3v-3h3Zm0-9h-3v-3h3Zm0-9h-3v-3h3Zm0-9h-3v-3h3Zm0-9h-3v-3h3Zm0-9h-3v-3h3Zm0-9h-3v-3h3Zm0-9h-3v-3h3Zm0-9h-3v-3h3Zm0-9h-3v-3h3Zm0-9h-3v-3h3Z" transform="translate(-121.2 -114.72)"/><rect class="cls-35" x="570.34" y="243.84" width="3" height="1.5"/><path class="cls-35" d="M296.64,579.5c-1,0-2,0-3,0l.06-3c1,0,2,0,3,0Zm6.06-.11-.12-3c1,0,2-.08,3-.14l.17,3C304.71,579.31,303.7,579.35,302.7,579.39Zm-15.17-.17-3-.21.24-3,3,.21Zm-9.07-.81c-1-.12-2-.25-3-.4l.42-3c1,.14,2,.27,2.95.39Zm-9-1.35c-1-.18-2-.37-3-.57l.59-2.94c1,.19,1.95.38,2.92.55Zm-8.9-1.88c-1-.24-2-.48-2.95-.74l.77-2.9c.95.25,1.92.49,2.88.72Zm-8.78-2.39c-1-.3-1.93-.6-2.89-.92l.93-2.85c.94.31,1.89.61,2.84.9Zm-8.62-2.91c-.94-.35-1.89-.71-2.83-1.08l1.1-2.8c.92.37,1.85.72,2.78,1.06Zm-8.42-3.41L232,565.23l1.26-2.73c.9.42,1.8.82,2.71,1.22Zm-8.22-3.89c-.9-.46-1.79-.93-2.68-1.41l1.42-2.64,2.63,1.37Zm-8-4.37c-.87-.51-1.74-1-2.6-1.56l1.57-2.56c.84.52,1.69,1,2.54,1.53Zm-7.7-4.83c-.84-.56-1.67-1.13-2.5-1.71l1.72-2.46c.81.57,1.62,1.13,2.45,1.68Zm-7.4-5.27c-.8-.6-1.6-1.22-2.39-1.85l1.85-2.35,2.35,1.81Zm-7.08-5.69-2.28-2,2-2.25c.74.66,1.49,1.31,2.24,1.95Zm-6.72-6.09c-.73-.7-1.45-1.4-2.17-2.12l2.12-2.12c.7.7,1.41,1.39,2.12,2.08Zm-6.36-6.48c-.69-.74-1.36-1.48-2-2.24l2.24-2c.65.74,1.32,1.47,2,2.2Zm-6-6.83c-.64-.78-1.27-1.56-1.89-2.36l2.35-1.85c.61.77,1.23,1.54,1.86,2.3Zm-5.55-7.18c-.59-.81-1.17-1.63-1.75-2.45l2.46-1.72c.56.81,1.14,1.61,1.72,2.41Zm-5.12-7.48c-.54-.84-1.07-1.69-1.6-2.55l2.55-1.57c.52.84,1,1.67,1.58,2.5ZM162,500.6c-.5-.88-1-1.77-1.46-2.66l2.64-1.42c.47.88.95,1.74,1.43,2.61Zm-4.22-8.05c-.44-.91-.87-1.82-1.3-2.73l2.72-1.26c.42.89.84,1.79,1.28,2.68ZM154,484.27c-.39-.93-.77-1.87-1.14-2.81l2.79-1.1c.37.92.74,1.84,1.12,2.76Zm-3.25-8.49c-.33-.95-.66-1.91-1-2.87l2.85-.93c.31.94.62,1.87,1,2.81ZM148,467.12c-.27-1-.54-1.95-.8-2.93l2.9-.76c.25,1,.52,1.91.79,2.87Zm-2.23-8.81q-.33-1.49-.63-3l2.94-.59c.2,1,.4,1.94.62,2.91Zm-1.71-8.93q-.24-1.5-.45-3l3-.42c.14,1,.28,2,.44,2.94Zm-1.18-9c-.1-1-.2-2-.28-3l3-.24c.08,1,.17,2,.27,3Zm-.65-9.07c0-1-.08-2-.1-3l3-.07q0,1.49.09,3Zm2.88-9-3,0c0-1,0-2,.08-3l3,.11C145.19,420.28,145.17,421.28,145.15,422.27Zm.41-8.91-3-.22c.07-1,.16-2,.26-3l3,.28C145.72,411.39,145.63,412.37,145.56,413.36Zm.93-8.86-3-.4c.13-1,.28-2,.43-3l3,.46C146.76,402.54,146.62,403.52,146.49,404.5Zm1.45-8.79-2.95-.58c.2-1,.4-2,.61-3l2.93.63C148.33,393.77,148.13,394.74,147.94,395.71Zm2-8.69-2.91-.75c.25-1,.51-1.95.78-2.92l2.89.8C150.4,385.1,150.14,386.06,149.9,387Zm2.46-8.57-2.85-.91c.3-1,.62-1.92,1-2.88l2.84,1C153,376.57,152.67,377.51,152.36,378.45Zm3-8.4-2.8-1.08c.36-.94.73-1.87,1.11-2.81l2.78,1.14C156.05,368.21,155.68,369.13,155.33,370.05Zm3.45-8.21L156,360.6c.42-.92.85-1.83,1.29-2.74l2.7,1.29C159.6,360.05,159.19,360.94,158.78,361.84Zm3.92-8-2.65-1.4c.47-.89.95-1.78,1.44-2.66l2.62,1.45Q163.39,352.55,162.7,353.85Zm4.39-7.75-2.57-1.55c.53-.86,1.06-1.72,1.6-2.57l2.53,1.6Q167.86,344.84,167.09,346.1Zm4.83-7.47-2.47-1.71c.58-.82,1.16-1.65,1.75-2.47l2.43,1.75C173.05,337,172.48,337.81,171.92,338.63Zm5.27-7.18-2.37-1.84q.93-1.2,1.89-2.37l2.32,1.89C178.41,329.9,177.8,330.67,177.19,331.45Zm5.68-6.85-2.26-2c.67-.76,1.34-1.51,2-2.25l2.21,2C184.18,323.12,183.52,323.86,182.87,324.6Zm6.06-6.51L186.8,316c.4-.41.81-.82,1.22-1.22l.93-.92L191,316l-.91.9Zm6.45-6.16-2-2.23c.75-.68,1.51-1.35,2.27-2l2,2.27C196.87,310.61,196.12,311.26,195.38,311.93Zm6.81-5.77-1.88-2.35c.79-.63,1.59-1.25,2.39-1.87l1.83,2.38C203.74,304.93,203,305.54,202.19,306.16Zm7.12-5.36-1.73-2.45c.83-.59,1.66-1.16,2.5-1.73l1.68,2.48C210.94,299.66,210.12,300.22,209.31,300.8Zm7.43-4.93-1.58-2.55c.86-.54,1.72-1.06,2.59-1.58l1.54,2.58C218.43,294.83,217.59,295.34,216.74,295.87Zm7.71-4.49L223,288.75c.89-.49,1.78-1,2.68-1.43l1.38,2.67C226.2,290.44,225.32,290.91,224.45,291.38Zm8-4-1.27-2.72,2.76-1.26,1.22,2.74Zm124-2.23c-.91-.39-1.82-.77-2.74-1.14l1.12-2.78c.94.37,1.87.76,2.8,1.16Zm-115.79-1.32L239.47,281c.94-.37,1.88-.74,2.83-1.09l1,2.81C242.43,283.09,241.5,283.44,240.58,283.81Zm107.5-1.93c-.93-.34-1.87-.66-2.8-1l1-2.84c1,.32,1.91.65,2.86,1ZM249,280.75,248,277.9l2.88-.92.89,2.86Zm90.66-1.63c-.95-.28-1.9-.55-2.86-.81l.79-2.9c1,.27,1.95.54,2.92.83Zm-82.12-.93-.78-2.9c1-.26,2-.52,2.94-.76l.72,2.91Zm73.5-1.33c-1-.22-1.93-.44-2.89-.64l.61-2.94c1,.21,2,.43,3,.66Zm-64.83-.73-.61-2.94c1-.2,2-.4,3-.58l.56,2.95C268.1,275.74,267.13,275.93,266.16,276.13Zm56.1-1-2.93-.47.44-3c1,.15,2,.3,3,.47Zm-47.32-.53-.44-3,3-.41.38,3Zm38.5-.7c-1-.11-2-.2-3-.29l.27-3c1,.09,2,.19,3,.3Zm-29.65-.33-.27-3c1-.09,2-.16,3-.23l.19,3C285.76,273.39,284.77,273.46,283.79,273.55Zm20.77-.38q-1.49-.07-3-.12l.09-3c1,0,2,.07,3,.13ZM292.68,273l-.09-3c1,0,2-.05,3-.05l0,3C294.66,273,293.67,273,292.68,273Z" transform="translate(-121.2 -114.72)"/><polygon class="cls-35" points="608.17 765.43 605.65 763.82 611.18 755.17 618.89 758.83 624.41 745.62 637.17 750.8 641.58 741.58 648.5 745.04 647.15 747.72 642.97 745.63 638.65 754.65 626.03 749.52 620.44 762.89 612.28 759.01 608.17 765.43"/><path class="cls-35" d="M492.54,130.25a7.77,7.77,0,1,1,7.76-7.76A7.77,7.77,0,0,1,492.54,130.25Zm0-12.53a4.77,4.77,0,1,0,4.76,4.77A4.77,4.77,0,0,0,492.54,117.72Z" transform="translate(-121.2 -114.72)"/><path class="cls-35" d="M589.21,547.82l-2.13-2.11,2.11-2.13,2.13,2.12Zm-6.39-6.34-2.13-2.12,2.12-2.12,2.13,2.11Zm-6.38-6.35L574.31,533l2.12-2.13,2.12,2.12Zm-6.38-6.34-2.13-2.12,2.11-2.12,2.13,2.11Zm-6.39-6.35-2.13-2.11,2.12-2.13,2.13,2.12Zm-6.38-6.34L555.16,514l2.12-2.12L559.4,514Zm-6.38-6.35-2.13-2.11,2.11-2.13,2.13,2.12Zm-6.39-6.34-2.12-2.12,2.11-2.12,2.13,2.11Zm-6.38-6.35L536,495l2.12-2.13,2.13,2.12Zm-6.38-6.34-2.13-2.12,2.11-2.12,2.13,2.11Zm-6.39-6.35-2.12-2.11,2.11-2.13,2.13,2.12ZM519,478l-2.13-2.11,2.12-2.13,2.13,2.11Zm-6.38-6.35-2.13-2.11,2.12-2.13,2.12,2.12Zm-6.38-6.34-2.13-2.11,2.11-2.13,2.13,2.11Z" transform="translate(-121.2 -114.72)"/><polygon class="cls-35" points="80 733.71 72.88 724.16 63.71 730.62 63.71 719.1 54.91 724.34 53.38 721.76 66.71 713.83 66.71 724.84 73.54 720.03 82.4 731.92 80 733.71"/><path class="cls-35" d="M593.26,892.12l-1.56-2.56,2.57-1.56,1.55,2.57Zm7.7-4.66-1.56-2.57,2.56-1.55,1.56,2.56Zm7.69-4.67-1.56-2.56,2.57-1.56,1.56,2.57Zm7.7-4.67-1.56-2.56,2.57-1.56,1.55,2.57Zm7.69-4.66-1.55-2.57,2.56-1.55,1.56,2.56Zm7.7-4.67-1.56-2.56,2.57-1.56,1.55,2.57Zm7.69-4.67-1.55-2.56,2.56-1.56,1.56,2.57Zm7.7-4.66-1.56-2.57,2.57-1.55,1.55,2.56Zm7.69-4.67-1.55-2.56,2.56-1.56,1.56,2.57Zm7.7-4.66L661,847.56l2.57-1.56,1.55,2.57Zm7.7-4.67-1.56-2.57,2.57-1.55,1.55,2.56Zm7.69-4.67-1.55-2.56,2.56-1.56,1.56,2.57Zm7.7-4.66-1.56-2.57,2.57-1.55,1.55,2.56Zm7.69-4.67-1.55-2.57,2.56-1.55,1.56,2.56Zm7.7-4.67-1.56-2.56,2.57-1.56,1.55,2.57Zm7.69-4.66-1.55-2.57L709.7,818l1.56,2.56Zm7.7-4.67-1.56-2.57,2.57-1.55L719,815.9Zm7.69-4.67-1.55-2.56,2.56-1.56,1.56,2.57Zm7.7-4.66-1.55-2.57,2.56-1.55,1.56,2.56Zm7.7-4.67-1.56-2.57,2.57-1.55L742,801.9Zm7.69-4.67-1.55-2.56,2.56-1.56,1.56,2.57Zm7.7-4.66-1.56-2.57,2.57-1.55,1.55,2.56Zm7.69-4.67L761,786.89l2.56-1.55,1.56,2.56Zm7.7-4.67-1.56-2.56,2.57-1.56,1.55,2.57Zm7.69-4.66-1.55-2.57L779,776l1.56,2.56Zm7.7-4.67-1.56-2.57,2.57-1.55,1.56,2.56Zm7.7-4.67-1.56-2.56,2.57-1.56,1.55,2.57Zm7.69-4.66-1.55-2.57,2.56-1.55,1.56,2.56Zm7.7-4.67-1.56-2.57,2.57-1.55,1.55,2.56Zm.28-5.36-2.23-2,2-2.23,2.24,2Zm-6.7-6-2.23-2,2-2.23,2.23,2Zm-6.7-6-2.23-2,2-2.24,2.23,2Zm-6.7-6-2.24-2,2-2.24,2.23,2Zm-6.7-6-2.24-2,2-2.23,2.23,2Zm-6.7-6-2.24-2,2-2.23,2.24,2Zm-6.71-6-2.23-2,2-2.24,2.24,2Zm-6.7-6-2.23-2,2-2.23,2.23,2Zm-6.7-6-2.23-2,2-2.23,2.23,2Zm-6.7-6-2.24-2,2-2.24,2.23,2Zm-6.7-6-2.24-2,2-2.24,2.24,2Z" transform="translate(-121.2 -114.72)"/></g><g id="ua"><path class="cls-35" d="M647.14,602.37l-6.27-.45-2-6.67-11.42-.84-2.83,6.31-6.11-.45,13.21-27.74,6.1.45Zm-9.79-12.07-3.16-10.89-4.63,10.32Z" transform="translate(-121.2 -114.72)"/><path class="cls-35" d="M652.31,574l11.42.84a33.86,33.86,0,0,1,5,.65,7.42,7.42,0,0,1,2.89,1.4,7.22,7.22,0,0,1,2,2.55,6.48,6.48,0,0,1,.63,3.4,6.74,6.74,0,0,1-1.35,3.61,6.65,6.65,0,0,1-3.12,2.29,7.58,7.58,0,0,1,3.83,2.89,6.94,6.94,0,0,1,1.08,4.41,8.5,8.5,0,0,1-1.18,3.72,7.66,7.66,0,0,1-2.69,2.76,8.31,8.31,0,0,1-4,1.07c-1,0-3.29-.07-7-.32l-9.72-.71Zm4.58,16.54-.56,7.63,5.34.39a26.24,26.24,0,0,0,4,.12,3.62,3.62,0,0,0,2.18-1,3.49,3.49,0,0,0,1-2.36,3.7,3.7,0,0,0-.46-2.23,3.51,3.51,0,0,0-1.71-1.44,19.55,19.55,0,0,0-5.08-.78Zm.84-11.36-.49,6.6,3.78.28q3.38.24,4.2.21a3.83,3.83,0,0,0,2.4-.85,3,3,0,0,0,1-2.17,3.17,3.17,0,0,0-.57-2.21,3.38,3.38,0,0,0-2.1-1.16c-.57-.11-2.21-.26-4.92-.46Z" transform="translate(-121.2 -114.72)"/><path class="cls-35" d="M683.92,605.07l1.73-23.72-8.47-.63.36-4.83,22.69,1.67-.36,4.83-8.45-.62-1.74,23.72Z" transform="translate(-121.2 -114.72)"/><path class="cls-35" d="M700.73,592.12a18.07,18.07,0,0,1,1.84-7.22,13.58,13.58,0,0,1,2.94-3.72,11.08,11.08,0,0,1,3.89-2.3,15.55,15.55,0,0,1,6.23-.68,13.49,13.49,0,0,1,9.82,4.65q3.49,4.2,3,11.17t-4.56,10.54a13.31,13.31,0,0,1-10.33,3.17q-6.37-.47-9.85-4.63C701.39,600.33,700.39,596.67,700.73,592.12Zm5.95.25c-.23,3.23.33,5.74,1.7,7.51a7.32,7.32,0,0,0,5.51,2.92,7.25,7.25,0,0,0,5.84-2.07q2.38-2.31,2.76-7.28c.24-3.28-.3-5.77-1.62-7.49a8,8,0,0,0-11.46-.81C707.83,586.68,706.92,589.08,706.68,592.37Z" transform="translate(-121.2 -114.72)"/><path class="cls-35" d="M731.81,608.58l2.1-28.55,8.63.63,3.75,19.86,6.55-19.1,8.65.63-2.09,28.56-5.36-.4,1.65-22.48-7.32,22.07-5.55-.41-4-22.89L737.17,609Z" transform="translate(-121.2 -114.72)"/><path class="cls-35" d="M765.12,611l2.1-28.55L788.39,584l-.35,4.83-15.41-1.13-.47,6.33,14.34,1.05-.35,4.82-14.34-1.06-.57,7.78,16,1.17-.35,4.81Z" transform="translate(-121.2 -114.72)"/><path class="cls-35" d="M791.75,613l2.09-28.56,5.77.42-.82,11.24,11.29.83.83-11.24,5.76.42-2.09,28.56-5.77-.42.92-12.49-11.3-.83-.91,12.49Z" transform="translate(-121.2 -114.72)"/><path class="cls-35" d="M648.42,621.89l22.71,1.66L669,652.11l-5.77-.42L665,627.92l-11.19-.82-1.74,23.77-5.76-.43Z" transform="translate(-121.2 -114.72)"/><path class="cls-35" d="M674.79,638.35a18.07,18.07,0,0,1,1.84-7.23,13.73,13.73,0,0,1,3-3.72,11.16,11.16,0,0,1,3.87-2.3,15.81,15.81,0,0,1,6.24-.68,13.46,13.46,0,0,1,9.82,4.66q3.5,4.2,3,11.17t-4.56,10.54A13.31,13.31,0,0,1,687.61,654q-6.37-.47-9.85-4.63C675.45,646.56,674.45,642.9,674.79,638.35Zm6,.24c-.24,3.24.33,5.74,1.7,7.52A7.32,7.32,0,0,0,688,649a7.25,7.25,0,0,0,5.84-2.07q2.38-2.33,2.76-7.29t-1.62-7.48a8,8,0,0,0-11.47-.81C681.89,632.9,681,635.31,680.74,638.59Z" transform="translate(-121.2 -114.72)"/><path class="cls-35" d="M706,654.82l2.1-28.56,9.25.68a32.66,32.66,0,0,1,6.82.93A7.53,7.53,0,0,1,728,631a9,9,0,0,1,1.25,5.69A9.42,9.42,0,0,1,728,641a7.9,7.9,0,0,1-2.63,2.64,8.42,8.42,0,0,1-3.09,1.13,33.31,33.31,0,0,1-6,0l-3.76-.27-.79,10.77Zm7.51-23.31-.6,8.11,3.16.23a14.86,14.86,0,0,0,4.59-.12,3.72,3.72,0,0,0,1.9-1.27,3.77,3.77,0,0,0,.82-2.17,3.69,3.69,0,0,0-.73-2.64,3.94,3.94,0,0,0-2.22-1.43,27.55,27.55,0,0,0-4.14-.5Z" transform="translate(-121.2 -114.72)"/><path class="cls-35" d="M748.65,658l.87-11.93-1.16-.08a6.81,6.81,0,0,0-3.91.53,24.08,24.08,0,0,0-4.19,4.61L735.64,657l-6.9-.5,3.9-5.32a34.35,34.35,0,0,1,3.63-4.4,12.6,12.6,0,0,1,3.25-2.16q-3.94-.92-5.56-3.2a7.85,7.85,0,0,1-1.39-5.29,8.25,8.25,0,0,1,1.65-4.52,6.43,6.43,0,0,1,3.67-2.46,22.63,22.63,0,0,1,6.48-.22l12.14.89-2.09,28.56Zm1.74-23.73-4.5-.33a37.18,37.18,0,0,0-4.52-.17,3,3,0,0,0-1.94.91,3.46,3.46,0,0,0-.95,2.28,3.58,3.58,0,0,0,.58,2.44,3.15,3.15,0,0,0,1.82,1.24,32.18,32.18,0,0,0,4.71.56l4.27.32Z" transform="translate(-121.2 -114.72)"/><path class="cls-35" d="M764.63,630.41l19.73,1.44-1.74,23.77,2.51.18-.8,11-4.79-.35.45-6.24-18-1.32-.45,6.24-4.8-.35.81-11L760,654a26.75,26.75,0,0,0,3-8.33,109.81,109.81,0,0,0,1.46-12.2Zm5.14,5.19q-.94,13-3.74,18.8l10.85.8,1.39-19Z" transform="translate(-121.2 -114.72)"/></g><g id="icon"><g id="Layer1_0_FILL" data-name="Layer1 0 FILL"><path class="cls-6" d="M346.84,381.3l68,100,62-100h-130m67.3,79.15-45.8-67.3h87.5Z" transform="translate(-121.2 -114.72)"/><path class="cls-36" d="M368.34,393.15l45.8,67.3,41.7-67.3Z" transform="translate(-121.2 -114.72)"/></g><g id="Layer0_0_FILL" data-name="Layer0 0 FILL"><path class="cls-6" d="M422.39,389.3H404.14l-22,40.05,6.8,10L399.19,423h30.9l8.9,15.5,6.85-11.05L422.39,389.3m.35,23.1H405.09l7.85-14.1Z" transform="translate(-121.2 -114.72)"/></g></g></g></svg>